<mxfile host="app.diagrams.net" agent="Mozilla/5.0 (Windows NT 10.0; Win64; x64) AppleWebKit/537.36 (KHTML, like Gecko) Chrome/134.0.0.0 Safari/537.36" version="26.1.1">
  <diagram name="Страница — 1" id="7XzJTnLJ_pEcVFkmM6w7">
    <mxGraphModel dx="518" dy="878" grid="1" gridSize="10" guides="1" tooltips="1" connect="1" arrows="1" fold="1" page="1" pageScale="1" pageWidth="1169" pageHeight="1654" math="0" shadow="0">
      <root>
        <mxCell id="0" />
        <mxCell id="1" parent="0" />
        <mxCell id="G5o4B2oWHST8tVnto6TA-1" value="" style="rounded=0;whiteSpace=wrap;html=1;movable=0;resizable=0;rotatable=0;deletable=0;editable=0;locked=1;connectable=0;" vertex="1" parent="1">
          <mxGeometry x="1169.0100000000002" y="40" width="390" height="810" as="geometry" />
        </mxCell>
        <mxCell id="G5o4B2oWHST8tVnto6TA-2" value="&lt;b&gt;Менеджер&lt;/b&gt;" style="rounded=0;whiteSpace=wrap;html=1;movable=0;resizable=0;rotatable=0;deletable=0;editable=0;locked=1;connectable=0;" vertex="1" parent="1">
          <mxGeometry x="1169" width="390" height="40" as="geometry" />
        </mxCell>
        <mxCell id="G5o4B2oWHST8tVnto6TA-105" value="" style="rounded=0;whiteSpace=wrap;html=1;movable=0;resizable=0;rotatable=0;deletable=0;editable=0;locked=1;connectable=0;" vertex="1" parent="1">
          <mxGeometry x="1559.0000000000002" y="40" width="390" height="810" as="geometry" />
        </mxCell>
        <mxCell id="G5o4B2oWHST8tVnto6TA-106" value="&lt;b&gt;Программное средство&lt;/b&gt;" style="rounded=0;whiteSpace=wrap;html=1;movable=0;resizable=0;rotatable=0;deletable=0;editable=0;locked=1;connectable=0;" vertex="1" parent="1">
          <mxGeometry x="1559.01" width="390" height="40" as="geometry" />
        </mxCell>
        <mxCell id="G5o4B2oWHST8tVnto6TA-3" style="edgeStyle=orthogonalEdgeStyle;rounded=0;orthogonalLoop=1;jettySize=auto;html=1;entryX=0.5;entryY=0;entryDx=0;entryDy=0;" edge="1" parent="1" source="G5o4B2oWHST8tVnto6TA-4" target="G5o4B2oWHST8tVnto6TA-6">
          <mxGeometry relative="1" as="geometry" />
        </mxCell>
        <mxCell id="G5o4B2oWHST8tVnto6TA-4" value="" style="ellipse;fillColor=strokeColor;html=1;" vertex="1" parent="1">
          <mxGeometry x="1354" y="66" width="20" height="20" as="geometry" />
        </mxCell>
        <mxCell id="G5o4B2oWHST8tVnto6TA-5" style="edgeStyle=orthogonalEdgeStyle;rounded=0;orthogonalLoop=1;jettySize=auto;html=1;entryX=0.5;entryY=0;entryDx=0;entryDy=0;" edge="1" parent="1" source="G5o4B2oWHST8tVnto6TA-6" target="G5o4B2oWHST8tVnto6TA-9">
          <mxGeometry relative="1" as="geometry">
            <mxPoint x="1364" y="196" as="targetPoint" />
          </mxGeometry>
        </mxCell>
        <mxCell id="G5o4B2oWHST8tVnto6TA-108" style="edgeStyle=orthogonalEdgeStyle;rounded=0;orthogonalLoop=1;jettySize=auto;html=1;exitX=1;exitY=0.5;exitDx=0;exitDy=0;entryX=0;entryY=0.5;entryDx=0;entryDy=0;" edge="1" parent="1" source="G5o4B2oWHST8tVnto6TA-9" target="G5o4B2oWHST8tVnto6TA-107">
          <mxGeometry relative="1" as="geometry">
            <Array as="points">
              <mxPoint x="1480" y="225" />
              <mxPoint x="1480" y="105" />
            </Array>
          </mxGeometry>
        </mxCell>
        <mxCell id="G5o4B2oWHST8tVnto6TA-6" value="Перейти в раздел аналитики заказов и продаж" style="rounded=1;whiteSpace=wrap;html=1;" vertex="1" parent="1">
          <mxGeometry x="1289.63" y="116" width="148.75" height="50" as="geometry" />
        </mxCell>
        <mxCell id="G5o4B2oWHST8tVnto6TA-7" value="| Начало |" style="text;html=1;align=center;verticalAlign=middle;resizable=0;points=[];autosize=1;strokeColor=none;fillColor=none;" vertex="1" parent="1">
          <mxGeometry x="1279" y="61" width="80" height="30" as="geometry" />
        </mxCell>
        <mxCell id="G5o4B2oWHST8tVnto6TA-9" value="Выбрать период аналитики" style="rounded=1;whiteSpace=wrap;html=1;" vertex="1" parent="1">
          <mxGeometry x="1289.62" y="200" width="148.75" height="50" as="geometry" />
        </mxCell>
        <mxCell id="G5o4B2oWHST8tVnto6TA-124" style="edgeStyle=orthogonalEdgeStyle;rounded=0;orthogonalLoop=1;jettySize=auto;html=1;entryX=0.005;entryY=0.427;entryDx=0;entryDy=0;entryPerimeter=0;exitX=1;exitY=0.5;exitDx=0;exitDy=0;" edge="1" parent="1" source="G5o4B2oWHST8tVnto6TA-13" target="G5o4B2oWHST8tVnto6TA-123">
          <mxGeometry relative="1" as="geometry">
            <Array as="points">
              <mxPoint x="1590" y="475" />
              <mxPoint x="1590" y="481" />
            </Array>
          </mxGeometry>
        </mxCell>
        <mxCell id="G5o4B2oWHST8tVnto6TA-13" value="Выбрать тип аналитического отчета" style="rounded=1;whiteSpace=wrap;html=1;" vertex="1" parent="1">
          <mxGeometry x="1378.99" y="450" width="148.75" height="50" as="geometry" />
        </mxCell>
        <mxCell id="G5o4B2oWHST8tVnto6TA-23" style="edgeStyle=orthogonalEdgeStyle;rounded=0;orthogonalLoop=1;jettySize=auto;html=1;entryX=0.5;entryY=0;entryDx=0;entryDy=0;" edge="1" parent="1" source="G5o4B2oWHST8tVnto6TA-24" target="G5o4B2oWHST8tVnto6TA-25">
          <mxGeometry relative="1" as="geometry" />
        </mxCell>
        <mxCell id="G5o4B2oWHST8tVnto6TA-24" value="Посмотреть отчет" style="rounded=1;whiteSpace=wrap;html=1;" vertex="1" parent="1">
          <mxGeometry x="1378.9899999999998" y="555" width="148.75" height="50" as="geometry" />
        </mxCell>
        <mxCell id="G5o4B2oWHST8tVnto6TA-25" value="" style="ellipse;html=1;shape=endState;fillColor=strokeColor;" vertex="1" parent="1">
          <mxGeometry x="1438.37" y="770" width="30" height="30" as="geometry" />
        </mxCell>
        <mxCell id="G5o4B2oWHST8tVnto6TA-26" value="|Конец|" style="text;html=1;align=center;verticalAlign=middle;resizable=0;points=[];autosize=1;strokeColor=none;fillColor=none;" vertex="1" parent="1">
          <mxGeometry x="1389.9999999999998" y="750" width="60" height="30" as="geometry" />
        </mxCell>
        <mxCell id="G5o4B2oWHST8tVnto6TA-110" style="edgeStyle=orthogonalEdgeStyle;rounded=0;orthogonalLoop=1;jettySize=auto;html=1;entryX=0.5;entryY=0;entryDx=0;entryDy=0;" edge="1" parent="1" source="G5o4B2oWHST8tVnto6TA-107" target="G5o4B2oWHST8tVnto6TA-111">
          <mxGeometry relative="1" as="geometry" />
        </mxCell>
        <mxCell id="G5o4B2oWHST8tVnto6TA-107" value="Загрузить данные о продажах и заказах" style="rounded=1;whiteSpace=wrap;html=1;" vertex="1" parent="1">
          <mxGeometry x="1679" y="80" width="148.75" height="50" as="geometry" />
        </mxCell>
        <mxCell id="G5o4B2oWHST8tVnto6TA-117" style="edgeStyle=orthogonalEdgeStyle;rounded=0;orthogonalLoop=1;jettySize=auto;html=1;entryX=0.5;entryY=0;entryDx=0;entryDy=0;" edge="1" parent="1" source="G5o4B2oWHST8tVnto6TA-109" target="G5o4B2oWHST8tVnto6TA-116">
          <mxGeometry relative="1" as="geometry" />
        </mxCell>
        <mxCell id="G5o4B2oWHST8tVnto6TA-109" value="Сохранить данные о продажах и заказах в кеш" style="rounded=1;whiteSpace=wrap;html=1;" vertex="1" parent="1">
          <mxGeometry x="1790.0000000000002" y="280" width="130.37" height="50" as="geometry" />
        </mxCell>
        <mxCell id="G5o4B2oWHST8tVnto6TA-113" style="edgeStyle=orthogonalEdgeStyle;rounded=0;orthogonalLoop=1;jettySize=auto;html=1;entryX=0.5;entryY=0;entryDx=0;entryDy=0;exitX=1;exitY=0.5;exitDx=0;exitDy=0;" edge="1" parent="1" source="G5o4B2oWHST8tVnto6TA-111" target="G5o4B2oWHST8tVnto6TA-109">
          <mxGeometry relative="1" as="geometry" />
        </mxCell>
        <mxCell id="G5o4B2oWHST8tVnto6TA-136" style="edgeStyle=orthogonalEdgeStyle;rounded=0;orthogonalLoop=1;jettySize=auto;html=1;" edge="1" parent="1" target="G5o4B2oWHST8tVnto6TA-135">
          <mxGeometry relative="1" as="geometry">
            <mxPoint x="1680" y="210" as="sourcePoint" />
            <Array as="points">
              <mxPoint x="1610" y="210" />
              <mxPoint x="1610" y="300" />
              <mxPoint x="1275" y="300" />
            </Array>
          </mxGeometry>
        </mxCell>
        <mxCell id="G5o4B2oWHST8tVnto6TA-111" value="" style="rhombus;whiteSpace=wrap;html=1;" vertex="1" parent="1">
          <mxGeometry x="1677" y="155" width="154" height="110" as="geometry" />
        </mxCell>
        <mxCell id="G5o4B2oWHST8tVnto6TA-112" value="Есть ли заказы или продажи за этот период" style="text;html=1;align=center;verticalAlign=middle;whiteSpace=wrap;rounded=0;" vertex="1" parent="1">
          <mxGeometry x="1705.3799999999999" y="195" width="95.99" height="30" as="geometry" />
        </mxCell>
        <mxCell id="G5o4B2oWHST8tVnto6TA-114" value="| Да |" style="text;html=1;align=center;verticalAlign=middle;resizable=0;points=[];autosize=1;strokeColor=none;fillColor=none;" vertex="1" parent="1">
          <mxGeometry x="1827.75" y="175" width="50" height="30" as="geometry" />
        </mxCell>
        <mxCell id="G5o4B2oWHST8tVnto6TA-115" value="| Нет |" style="text;html=1;align=center;verticalAlign=middle;resizable=0;points=[];autosize=1;strokeColor=none;fillColor=none;" vertex="1" parent="1">
          <mxGeometry x="1620" y="175" width="60" height="30" as="geometry" />
        </mxCell>
        <mxCell id="G5o4B2oWHST8tVnto6TA-119" style="edgeStyle=orthogonalEdgeStyle;rounded=0;orthogonalLoop=1;jettySize=auto;html=1;entryX=1;entryY=0.5;entryDx=0;entryDy=0;" edge="1" parent="1" target="G5o4B2oWHST8tVnto6TA-118">
          <mxGeometry relative="1" as="geometry">
            <mxPoint x="1790" y="380" as="sourcePoint" />
            <Array as="points">
              <mxPoint x="1610" y="380" />
              <mxPoint x="1610" y="365" />
            </Array>
          </mxGeometry>
        </mxCell>
        <mxCell id="G5o4B2oWHST8tVnto6TA-116" value="Рассчитать аналитические показатели" style="rounded=1;whiteSpace=wrap;html=1;" vertex="1" parent="1">
          <mxGeometry x="1790.0000000000002" y="360" width="130.37" height="50" as="geometry" />
        </mxCell>
        <mxCell id="G5o4B2oWHST8tVnto6TA-120" style="edgeStyle=orthogonalEdgeStyle;rounded=0;orthogonalLoop=1;jettySize=auto;html=1;entryX=0.5;entryY=0;entryDx=0;entryDy=0;" edge="1" parent="1" source="G5o4B2oWHST8tVnto6TA-118" target="G5o4B2oWHST8tVnto6TA-13">
          <mxGeometry relative="1" as="geometry" />
        </mxCell>
        <mxCell id="G5o4B2oWHST8tVnto6TA-118" value="Посмотреть аналитику заказов и продаж" style="rounded=1;whiteSpace=wrap;html=1;" vertex="1" parent="1">
          <mxGeometry x="1378.9899999999998" y="340" width="148.75" height="50" as="geometry" />
        </mxCell>
        <mxCell id="G5o4B2oWHST8tVnto6TA-121" value="| Передача периода аналитики |" style="text;html=1;align=center;verticalAlign=middle;resizable=0;points=[];autosize=1;strokeColor=none;fillColor=none;fontSize=10;" vertex="1" parent="1">
          <mxGeometry x="1470" y="70" width="170" height="30" as="geometry" />
        </mxCell>
        <mxCell id="G5o4B2oWHST8tVnto6TA-122" value="| Передача страницы аналитики |" style="text;html=1;align=center;verticalAlign=middle;resizable=0;points=[];autosize=1;strokeColor=none;fillColor=none;fontSize=10;" vertex="1" parent="1">
          <mxGeometry x="1605.1899999999998" y="350" width="180" height="30" as="geometry" />
        </mxCell>
        <mxCell id="G5o4B2oWHST8tVnto6TA-127" style="edgeStyle=orthogonalEdgeStyle;rounded=0;orthogonalLoop=1;jettySize=auto;html=1;" edge="1" parent="1" source="G5o4B2oWHST8tVnto6TA-123" target="G5o4B2oWHST8tVnto6TA-126">
          <mxGeometry relative="1" as="geometry" />
        </mxCell>
        <mxCell id="G5o4B2oWHST8tVnto6TA-123" value="Загрузка данных о продажах и заказах из кеша" style="rounded=1;whiteSpace=wrap;html=1;" vertex="1" parent="1">
          <mxGeometry x="1790.0000000000002" y="460" width="130.37" height="50" as="geometry" />
        </mxCell>
        <mxCell id="G5o4B2oWHST8tVnto6TA-125" value="| Передача типа отчета |" style="text;html=1;align=center;verticalAlign=middle;resizable=0;points=[];autosize=1;strokeColor=none;fillColor=none;fontSize=10;" vertex="1" parent="1">
          <mxGeometry x="1590" y="450" width="140" height="30" as="geometry" />
        </mxCell>
        <mxCell id="G5o4B2oWHST8tVnto6TA-129" style="edgeStyle=orthogonalEdgeStyle;rounded=0;orthogonalLoop=1;jettySize=auto;html=1;exitX=0.5;exitY=1;exitDx=0;exitDy=0;" edge="1" parent="1" source="G5o4B2oWHST8tVnto6TA-126" target="G5o4B2oWHST8tVnto6TA-128">
          <mxGeometry relative="1" as="geometry">
            <mxPoint x="1850" y="620" as="sourcePoint" />
            <Array as="points">
              <mxPoint x="1855" y="645" />
            </Array>
          </mxGeometry>
        </mxCell>
        <mxCell id="G5o4B2oWHST8tVnto6TA-126" value="Тип отчета" style="rhombus;whiteSpace=wrap;html=1;" vertex="1" parent="1">
          <mxGeometry x="1815.19" y="540" width="80" height="80" as="geometry" />
        </mxCell>
        <mxCell id="G5o4B2oWHST8tVnto6TA-138" style="edgeStyle=orthogonalEdgeStyle;rounded=0;orthogonalLoop=1;jettySize=auto;html=1;entryX=1;entryY=0.5;entryDx=0;entryDy=0;" edge="1" parent="1" source="G5o4B2oWHST8tVnto6TA-128" target="G5o4B2oWHST8tVnto6TA-24">
          <mxGeometry relative="1" as="geometry" />
        </mxCell>
        <mxCell id="G5o4B2oWHST8tVnto6TA-128" value="Сгенерировать отчет по продажам" style="rounded=1;whiteSpace=wrap;html=1;" vertex="1" parent="1">
          <mxGeometry x="1630" y="620" width="130.37" height="50" as="geometry" />
        </mxCell>
        <mxCell id="G5o4B2oWHST8tVnto6TA-139" style="edgeStyle=orthogonalEdgeStyle;rounded=0;orthogonalLoop=1;jettySize=auto;html=1;entryX=1;entryY=0.5;entryDx=0;entryDy=0;" edge="1" parent="1" source="G5o4B2oWHST8tVnto6TA-130" target="G5o4B2oWHST8tVnto6TA-24">
          <mxGeometry relative="1" as="geometry" />
        </mxCell>
        <mxCell id="G5o4B2oWHST8tVnto6TA-130" value="Сгенерировать отчет по заказам" style="rounded=1;whiteSpace=wrap;html=1;" vertex="1" parent="1">
          <mxGeometry x="1630" y="690" width="130.37" height="50" as="geometry" />
        </mxCell>
        <mxCell id="G5o4B2oWHST8tVnto6TA-141" style="edgeStyle=orthogonalEdgeStyle;rounded=0;orthogonalLoop=1;jettySize=auto;html=1;entryX=1;entryY=0.5;entryDx=0;entryDy=0;" edge="1" parent="1" source="G5o4B2oWHST8tVnto6TA-131" target="G5o4B2oWHST8tVnto6TA-24">
          <mxGeometry relative="1" as="geometry" />
        </mxCell>
        <mxCell id="G5o4B2oWHST8tVnto6TA-131" value="Сгенерировать отчет ключевых показателей" style="rounded=1;whiteSpace=wrap;html=1;" vertex="1" parent="1">
          <mxGeometry x="1630" y="760" width="130.37" height="50" as="geometry" />
        </mxCell>
        <mxCell id="G5o4B2oWHST8tVnto6TA-132" style="edgeStyle=orthogonalEdgeStyle;rounded=0;orthogonalLoop=1;jettySize=auto;html=1;" edge="1" parent="1">
          <mxGeometry relative="1" as="geometry">
            <mxPoint x="1855" y="620" as="sourcePoint" />
            <mxPoint x="1760.37" y="715" as="targetPoint" />
            <Array as="points">
              <mxPoint x="1855.37" y="715" />
            </Array>
          </mxGeometry>
        </mxCell>
        <mxCell id="G5o4B2oWHST8tVnto6TA-133" style="edgeStyle=orthogonalEdgeStyle;rounded=0;orthogonalLoop=1;jettySize=auto;html=1;" edge="1" parent="1">
          <mxGeometry relative="1" as="geometry">
            <mxPoint x="1855" y="690" as="sourcePoint" />
            <mxPoint x="1760.37" y="785" as="targetPoint" />
            <Array as="points">
              <mxPoint x="1855.37" y="785" />
            </Array>
          </mxGeometry>
        </mxCell>
        <mxCell id="G5o4B2oWHST8tVnto6TA-134" value="| Нет |" style="text;html=1;align=center;verticalAlign=middle;resizable=0;points=[];autosize=1;strokeColor=none;fillColor=none;" vertex="1" parent="1">
          <mxGeometry x="1780" y="620" width="60" height="30" as="geometry" />
        </mxCell>
        <mxCell id="G5o4B2oWHST8tVnto6TA-137" style="edgeStyle=orthogonalEdgeStyle;rounded=0;orthogonalLoop=1;jettySize=auto;html=1;" edge="1" parent="1" source="G5o4B2oWHST8tVnto6TA-135">
          <mxGeometry relative="1" as="geometry">
            <mxPoint x="1440" y="784" as="targetPoint" />
            <Array as="points">
              <mxPoint x="1275" y="784" />
            </Array>
          </mxGeometry>
        </mxCell>
        <mxCell id="G5o4B2oWHST8tVnto6TA-135" value="Сообщение об отсутствии заказов или продаж за выбранный период" style="rounded=1;whiteSpace=wrap;html=1;" vertex="1" parent="1">
          <mxGeometry x="1200.2399999999998" y="340" width="148.75" height="50" as="geometry" />
        </mxCell>
      </root>
    </mxGraphModel>
  </diagram>
</mxfile>
